<svg xmlns="http://www.w3.org/2000/svg" viewBox="0 0 64 64" id="experience"><path fill="#f43030" d="M51,56l3,7-4-3-2,3-2.15-7-1.14-3.71,2.51-2.51a.99.99,0,0,1,.71-.29h.28Z"></path><path fill="#c03" d="M45.85,56,48,63l2-3,4,3-1.607-3.751a2.089,2.089,0,0,0-1.92-1.265h0A2.088,2.088,0,0,1,48.506,56.6L46.38,50.62l-1.67,1.67Z"></path><polygon fill="#f43030" points="43.29 52.29 42.15 56 40 63 38 60 34 63 37 56 39.79 49.49 40.49 49.49 43.29 52.29"></polygon><path fill="#c03" d="M38,60l2,3,2.15-7,1.14-3.71-1.964-1.964-1.888,5.822a2.067,2.067,0,0,1-1.857,1.427h0a2.069,2.069,0,0,0-1.792,1.251L34,63Z"></path><path fill="#fbb253" d="M55.29,40.29a1.014,1.014,0,0,1,0,1.42l-2.51,2.51a.99.99,0,0,0-.29.71v3.56a1,1,0,0,1-1,1H47.93a.99.99,0,0,0-.71.29l-2.51,2.51a1.008,1.008,0,0,1-1.42,0l-2.8-2.8H36.51a1,1,0,0,1-1-1V44.93a.99.99,0,0,0-.29-.71l-2.51-2.51a1.008,1.008,0,0,1,0-1.42l2.51-2.51a.99.99,0,0,0,.29-.71V33.51a1,1,0,0,1,1-1h3.56a.99.99,0,0,0,.71-.29l2.51-2.51a1.008,1.008,0,0,1,1.42,0l2.51,2.51a.99.99,0,0,0,.71.29h3.56a1,1,0,0,1,1,1v3.98Z"></path><path fill="#f28a2e" d="M55.29,40.29l-2.8-2.8V33.51a.99.99,0,0,0-.749-.949c.008.193.034.382.034.576,0,8.072-7.075,14.717-16.2,15.665a.993.993,0,0,0,.937.688h3.98l2.8,2.8a1.008,1.008,0,0,0,1.42,0l2.51-2.51a.99.99,0,0,1,.71-.29h3.56a1,1,0,0,0,1-1V44.93a.99.99,0,0,1,.29-.71l2.51-2.51a1.014,1.014,0,0,0,0-1.42Z"></path><path fill="#edf4fa" d="M43.29,52.29,42.15,56h3.7l-1.14-3.71A1.008,1.008,0,0,1,43.29,52.29Z"></path><path fill="#edf4fa" d="M52.5,1h-42A4.507,4.507,0,0,1,15,5.5V56H37l2.79-6.51H36.51a1,1,0,0,1-1-1V44.93a.99.99,0,0,0-.29-.71l-2.51-2.51a1.008,1.008,0,0,1,0-1.42l2.51-2.51a.99.99,0,0,0,.29-.71V33.51a1,1,0,0,1,1-1h3.56a.99.99,0,0,0,.71-.29l2.51-2.51a1.008,1.008,0,0,1,1.42,0l2.51,2.51a.99.99,0,0,0,.71.29h3.56a1,1,0,0,1,1,1v3.98l2.8,2.8a1.014,1.014,0,0,1,0,1.42l-2.51,2.51a.99.99,0,0,0-.29.71v3.56a1,1,0,0,1-1,1H48.21L51,56h6V5.5A4.494,4.494,0,0,0,52.5,1Z"></path><path fill="#cdd8e3" d="M43.29 52.29L42.15 56h3.7l-1.14-3.71A1.008 1.008 0 0 1 43.29 52.29zM44.877 29.877L47.22 32.22a.99.99 0 0 0 .71.29h3.56a1 1 0 0 1 1 1v3.98l2.8 2.8a1.014 1.014 0 0 1 0 1.42l-2.51 2.51a.99.99 0 0 0-.29.71v3.56a1 1 0 0 1-1 1H48.21L51 56h6V5.5A4.494 4.494 0 0 0 52.5 1H44.577A79.193 79.193 0 0 1 46 17.72 65.769 65.769 0 0 1 44.877 29.877zM37 56l2.79-6.51H36.51a1 1 0 0 1-1-1v-.705A9.929 9.929 0 0 1 29 50c-3.16-.216-9.009 1.753-14 4.746V56z"></path><circle cx="44" cy="41" r="5" fill="#505a9a"></circle><path fill="#353b71" d="M44,36a4.913,4.913,0,0,0-.635.064,4.958,4.958,0,0,1-3.6,7.568A4.994,4.994,0,1,0,44,36Z"></path><path fill="#fceee0" d="M15 19.5V51H7c0-5 .39-6.3 4-10S15 19.5 15 19.5zM15 5.5V15H6V5.5a4.5 4.5 0 0 1 9 0z"></path><path fill="#1a1a23" d="M21 7H51a1 1 0 0 0 0-2H21a1 1 0 0 0 0 2zM21 11H51a1 1 0 0 0 0-2H21a1 1 0 0 0 0 2zM21 15H51a1 1 0 0 0 0-2H21a1 1 0 1 0 0 2zM21 19H51a1 1 0 0 0 0-2H21a1 1 0 1 0 0 2zM21 23H51a1 1 0 0 0 0-2H21a1 1 0 1 0 0 2zM21 27H38a1 1 0 0 0 0-2H21a1 1 0 1 0 0 2zM44 35a6 6 0 1 0 6 6A6.006 6.006 0 0 0 44 35zm0 10a4 4 0 1 1 4-4A4 4 0 0 1 44 45z"></path><path fill="#1a1a23" d="M6,16h5a1,1,0,0,0,0-2H7V5.5a3.5,3.5,0,0,1,7,0V19.478C13.894,24.32,13.019,37.5,10.284,40.3,6.4,44.287,6,45.887,6,51a1,1,0,0,0,1,1h4a1,1,0,0,0,0-2H8.006c.05-3.9.5-5.017,3.71-8.3A11.757,11.757,0,0,0,14,36.756V56a1,1,0,0,0,1,1H33a1,1,0,0,0,0-2H16V5.5A5.477,5.477,0,0,0,14.739,2H52.5A3.5,3.5,0,0,1,56,5.5V39.586l-2.515-2.515V33.515a2,2,0,0,0-2-2H47.929L45.414,29a2,2,0,0,0-2.828,0l-2.515,2.515H36.515a2,2,0,0,0-2,2v3.556L32,39.586a2,2,0,0,0,0,2.828l2.515,2.515v3.556a2,2,0,0,0,2,2h1.761L33.081,62.606A1,1,0,0,0,34.6,63.8l3.154-2.366,1.414,2.121A1,1,0,0,0,40,64a1.02,1.02,0,0,0,.145-.01,1,1,0,0,0,.811-.7L42.893,57h2.214l1.937,6.294a1,1,0,0,0,.811.7A1.02,1.02,0,0,0,48,64a1,1,0,0,0,.832-.445l1.414-2.121L53.4,63.8a1,1,0,0,0,1.519-1.194L49.724,50.485h1.761a2,2,0,0,0,2-2V44.929L56,42.414V55H55a1,1,0,0,0,0,2h2a1,1,0,0,0,1-1V5.5A5.506,5.506,0,0,0,52.5,0H10a.987.987,0,0,0-.389.079A5.5,5.5,0,0,0,5,5.5V15A1,1,0,0,0,6,16ZM39.664,60.693l-.832-1.248A1,1,0,0,0,37.4,59.2l-1.007.756,3.944-9.205,1.824,1.824ZM43.508,55l.437-1.42c.018,0,.037.005.055.005s.037-.005.055-.005L44.492,55ZM50.6,59.2a1,1,0,0,0-1.432.245l-.832,1.248-2.5-8.118,1.824-1.824,3.944,9.205Zm1.471-15.685a1.986,1.986,0,0,0-.586,1.414v3.556H47.929a2.013,2.013,0,0,0-1.414.586L44,51.586l-2.808-2.808a1,1,0,0,0-.707-.293h-3.97V44.929a1.986,1.986,0,0,0-.586-1.414L33.414,41l2.515-2.515a1.986,1.986,0,0,0,.586-1.414V33.515h3.556a2.013,2.013,0,0,0,1.414-.586L44,30.414l2.515,2.515a2.013,2.013,0,0,0,1.414.586h3.556v3.97a1,1,0,0,0,.293.707L54.586,41Z"></path></svg>