<svg xmlns="http://www.w3.org/2000/svg" viewBox="0 0 24 24" id="gallery"><path fill="#2D98D4" d="M21 3H5c-1.103 0-2 .897-2 2v16c0 1.103.897 2 2 2h16c1.103 0 2-.897 2-2V5c0-1.103-.897-2-2-2z"></path><path fill="#FFF" d="M21 3H5c-1.103 0-2 .897-2 2v.25c0-1.103.897-2 2-2h16c1.103 0 2 .897 2 2V5c0-1.103-.897-2-2-2z" opacity=".2"></path><path fill="#E6E6E5" d="m23 18-6.5-6.5L5 23h16c1.103 0 2-.897 2-2v-3z"></path><path fill="#F3F3F3" d="m16.5 23-8-8L3 20.5v.5c0 1.103.897 2 2 2h11.5z"></path><path fill="#010101" d="M21 22.75H5c-1.103 0-2-.897-2-2V21c0 1.103.897 2 2 2h16c1.103 0 2-.897 2-2v-.25c0 1.103-.897 2-2 2z" opacity=".1"></path><circle cx="10.5" cy="9.5" r="2.5" fill="#FFCF51"></circle><path fill="#FFF" d="M10.5 7.25a2.62 2.62 0 0 1 2.394 1.53C12.588 7.744 11.632 7 10.5 7s-2.087.744-2.394 1.778A2.62 2.62 0 0 1 10.5 7.25z" opacity=".2"></path><path fill="#010101" d="M10.5 11.75a2.62 2.62 0 0 1-2.394-1.53C8.412 11.256 9.368 12 10.5 12s2.087-.744 2.394-1.778A2.62 2.62 0 0 1 10.5 11.75z" opacity=".1"></path><linearGradient id="a" x1="10.712" x2="13.891" y1="9.712" y2="12.891" gradientUnits="userSpaceOnUse"><stop offset="0" stop-color="#3E2823" stop-opacity=".2"></stop><stop offset="1" stop-color="#3E2823" stop-opacity="0"></stop></linearGradient><path fill="url(#a)" d="m16.283 11.748-4.015-4.016-.001.001C12.72 8.186 13 8.811 13 9.5c0 1.379-1.121 2.5-2.5 2.5a2.49 2.49 0 0 1-1.767-.733l4.015 4.016 3.535-3.535z"></path><path fill="#010101" d="M21 3H5c-1.103 0-2 .897-2 2v16c0 1.103.897 2 2 2h16c1.103 0 2-.897 2-2V5c0-1.103-.897-2-2-2z" opacity=".1"></path><path fill="#2D98D4" d="M19 1H3c-1.103 0-2 .897-2 2v16c0 1.103.897 2 2 2h16c1.103 0 2-.897 2-2V3c0-1.103-.897-2-2-2z"></path><path fill="#FFF" d="M19 1H3c-1.103 0-2 .897-2 2v.25c0-1.103.897-2 2-2h16c1.103 0 2 .897 2 2V3c0-1.103-.897-2-2-2z" opacity=".2"></path><path fill="#E6E6E5" d="m21 16-6.5-6.5L3 21h16c1.103 0 2-.897 2-2v-3z"></path><path fill="#F3F3F3" d="m14.5 21-8-8L1 18.5v.5c0 1.103.897 2 2 2h11.5z"></path><path fill="#010101" d="M19 20.75H3c-1.103 0-2-.897-2-2V19c0 1.103.897 2 2 2h16c1.103 0 2-.897 2-2v-.25c0 1.103-.897 2-2 2z" opacity=".1"></path><circle cx="8.5" cy="7.5" r="2.5" fill="#FFCF51"></circle><path fill="#FFF" d="M8.5 5.25a2.62 2.62 0 0 1 2.394 1.53C10.588 5.744 9.632 5 8.5 5s-2.087.744-2.394 1.778A2.62 2.62 0 0 1 8.5 5.25z" opacity=".2"></path><path fill="#010101" d="M8.5 9.75a2.62 2.62 0 0 1-2.394-1.53C6.412 9.256 7.368 10 8.5 10s2.087-.744 2.394-1.778A2.62 2.62 0 0 1 8.5 9.75z" opacity=".1"></path><linearGradient id="b" x1="8.712" x2="11.891" y1="7.712" y2="10.891" gradientUnits="userSpaceOnUse"><stop offset="0" stop-color="#3E2823" stop-opacity=".2"></stop><stop offset="1" stop-color="#3E2823" stop-opacity="0"></stop></linearGradient><path fill="url(#b)" d="m14.283 9.748-4.015-4.016-.001.001C10.72 6.186 11 6.811 11 7.5 11 8.879 9.879 10 8.5 10a2.49 2.49 0 0 1-1.767-.733l4.015 4.016 3.535-3.535z"></path><linearGradient id="c" x1="-.652" x2="24.652" y1="6.1" y2="17.9" gradientUnits="userSpaceOnUse"><stop offset="0" stop-color="#FFF" stop-opacity=".2"></stop><stop offset="1" stop-color="#FFF" stop-opacity="0"></stop></linearGradient><path fill="url(#c)" d="M21 3c0-1.103-.897-2-2-2H3c-1.103 0-2 .897-2 2v16c0 1.103.897 2 2 2 0 1.103.897 2 2 2h16c1.103 0 2-.897 2-2V5c0-1.103-.897-2-2-2z"></path></svg>