<svg xmlns="http://www.w3.org/2000/svg" width="512" height="512" id="wrench">
  <path fill="#D94452" d="m300.217 302.248-22.623 22.625-90.459-90.475 22.624-22.624 52.772 7.538 30.156 30.156z"></path>
  <path fill="#EC5564" d="m217.313 264.529 7.539-7.539c4.164-4.163 4.164-10.921 0-15.085-4.164-4.156-10.914-4.156-15.078 0l-7.539 7.539c-.008.008-.016.023-.023.023l15.078 15.084.023-.022zm22.625 22.625 7.531-7.547c4.164-4.172 4.164-10.914 0-15.078s-10.906-4.164-15.078 0l-7.539 7.531c-.008 0-.016.016-.023.031l15.085 15.078c0 .001.016-.015.024-.015zm30.156 0c-4.164-4.172-10.922-4.172-15.086 0l-7.539 7.531c-.008 0-.016.016-.023.031l15.086 15.062h.016l7.547-7.547c4.155-4.17 4.155-10.92-.001-15.077z"></path>
  <path fill="#E6E9ED" d="M247.445 294.717 98.082 444.072l-15.078 30.155-52.779 37.703L.069 481.773l37.702-52.779 30.156-15.078L217.29 264.553z"></path>
  <path fill="#EC5564" d="M508.806 78.59c4.156 4.164 4.156 10.906 0 15.078L322.842 279.623c-4.172 4.172-10.922 4.172-15.078 0l-75.388-75.388a10.647 10.647 0 0 1 0-15.078L418.339 3.194c4.156-4.164 10.906-4.164 15.062 0l75.405 75.396z"></path>
  <path fill="#D94452" d="M300.217 211.774c-4.155-4.156-4.155-10.914 0-15.078L433.401 63.504c4.172-4.164 10.922-4.164 15.093 0 4.156 4.164 4.156 10.921 0 15.085L315.295 211.774c-4.156 4.164-10.922 4.164-15.078 0zm-30.147-45.233L403.245 33.349c4.172-4.164 4.172-10.906 0-15.078l-148.253 148.27c4.164 4.164 10.914 4.164 15.078 0zm208.579-57.796L345.451 241.929c-4.156 4.164-4.156 10.914 0 15.084l148.276-148.269c-4.171-4.163-10.921-4.163-15.078.001z"></path>
  <path fill="#CCD1D9" d="M37.771 428.994.069 481.773l30.156 30.157 52.779-37.703 14.953-29.905-30.28-30.281z"></path>
  <path fill="#424953" d="m47.826 499.367-35.187-35.185-12.57 17.591 30.156 30.157z"></path>
  <path fill="#F6BB42" d="M.007 104.394s7.992 92.537 94.06 86.255c95.732-6.992 8.68-56.107 8.68-56.107l-42.42.008-60.32-30.156z"></path>
  <path fill="#F6BB42" d="m66.568 28.998 72.38 48.256 3.016 27.14-67.85 98.013 82.927 7.531s220.751 250.916 245.735 275.898c24.984 25 65.498 25 90.467 0 25-24.982 25-65.482 0-90.467-8.188-8.203-275.891-245.742-275.891-245.742s19.297-57.53-5.812-94.919c-59.373-88.443-144.972-25.71-144.972-25.71zm397.723 395.324c8.327 8.328 8.327 21.828 0 30.172-8.328 8.312-21.827 8.312-30.155 0-8.328-8.344-8.328-21.844 0-30.172s21.827-8.328 30.155 0z"></path>
  <path fill="#FFCE54" d="m45.248 28.998 72.373 48.256 3.016 27.14-67.85 98.013 82.935 7.531S356.467 460.854 381.45 485.836c24.983 25 65.498 25 90.481 0 24.969-24.982 24.969-65.482 0-90.467-8.202-8.203-275.897-245.742-275.897-245.742s19.28-57.53-5.82-94.919c-59.367-88.443-144.966-25.71-144.966-25.71zm397.716 395.324c8.343 8.328 8.343 21.828 0 30.172-8.328 8.312-21.812 8.312-30.156 0-8.328-8.344-8.328-21.844 0-30.172 8.343-8.328 21.828-8.328 30.156 0z"></path>
  <path fill="#F6BB42" d="M379.074 379.918c0 2.734-1.047 5.451-3.125 7.545-4.171 4.156-10.921 4.156-15.076 0L210.087 236.671c-4.164-4.164-4.164-10.922 0-15.085 4.156-4.164 10.914-4.164 15.078 0L375.95 372.371a10.68 10.68 0 0 1 3.124 7.547z"></path>
  <path fill="#E6E9ED" d="m119.457 93.8 1.18 10.593-42.108 60.835c.359.25.727.5 1.125.719l24.757 12.929c4.797 2.632 10.812 1.195 13.898-3.305l35.875-52.202a10.667 10.667 0 0 0 1.586-8.508 10.657 10.657 0 0 0-5.257-6.883l-24.75-12.945a10.656 10.656 0 0 0-6.306-1.233z"></path>
  <path fill="#CCD1D9" d="m130.519 157.807 12.14-17.664-33.913-18.57-12.211 17.64z"></path>
</svg>
